<?xml version="1.0" encoding="UTF-8" standalone="no"?><svg xmlns="http://www.w3.org/2000/svg" xmlns:xlink="http://www.w3.org/1999/xlink" contentStyleType="text/css" height="561px" preserveAspectRatio="none" style="width:759px;height:561px;background:#FFFFFF;" version="1.1" viewBox="0 0 759 561" width="759px" zoomAndPan="magnify"><defs/><g><!--MD5=[b5e8a908e37e589ff1353aa5fb99b9b0]
entity ts--><g id="elem_ts"><rect fill="#F1F1F1" height="62.9766" rx="2.5" ry="2.5" style="stroke:#181818;stroke-width:0.5;" width="185" x="215" y="7"/><rect fill="#F1F1F1" height="10" style="stroke:#181818;stroke-width:0.5;" width="15" x="380" y="12"/><rect fill="#F1F1F1" height="2" style="stroke:#181818;stroke-width:0.5;" width="4" x="378" y="14"/><rect fill="#F1F1F1" height="2" style="stroke:#181818;stroke-width:0.5;" width="4" x="378" y="18"/><text fill="#000000" font-family="sans-serif" font-size="14" lengthAdjust="spacing" textLength="145" x="230" y="40.5352">Telemetry Supervisor</text><text fill="#000000" font-family="sans-serif" font-size="14" lengthAdjust="spacing" textLength="83" x="230" y="57.0234">(Supervisor)</text></g><!--MD5=[71e85884706d324765c70f5e7cb006af]
entity fsw--><g id="elem_fsw"><rect fill="#F1F1F1" height="62.9766" rx="2.5" ry="2.5" style="stroke:#181818;stroke-width:0.5;" width="175" x="7" y="129.97"/><rect fill="#F1F1F1" height="10" style="stroke:#181818;stroke-width:0.5;" width="15" x="162" y="134.97"/><rect fill="#F1F1F1" height="2" style="stroke:#181818;stroke-width:0.5;" width="4" x="160" y="136.97"/><rect fill="#F1F1F1" height="2" style="stroke:#181818;stroke-width:0.5;" width="4" x="160" y="140.97"/><text fill="#000000" font-family="sans-serif" font-size="14" lengthAdjust="spacing" textLength="135" x="22" y="163.5052">File System Watcher</text><text fill="#000000" font-family="sans-serif" font-size="14" lengthAdjust="spacing" textLength="80" x="22" y="179.9934">(GenServer)</text></g><!--MD5=[1cf3a1e791216b113a78027851298b1c]
entity reg--><g id="elem_reg"><rect fill="#F1F1F1" height="62.9766" rx="2.5" ry="2.5" style="stroke:#181818;stroke-width:0.5;" width="180" x="217.5" y="129.97"/><rect fill="#F1F1F1" height="10" style="stroke:#181818;stroke-width:0.5;" width="15" x="377.5" y="134.97"/><rect fill="#F1F1F1" height="2" style="stroke:#181818;stroke-width:0.5;" width="4" x="375.5" y="136.97"/><rect fill="#F1F1F1" height="2" style="stroke:#181818;stroke-width:0.5;" width="4" x="375.5" y="140.97"/><text fill="#000000" font-family="sans-serif" font-size="14" lengthAdjust="spacing" textLength="140" x="232.5" y="163.5052">Component Registry</text><text fill="#000000" font-family="sans-serif" font-size="14" lengthAdjust="spacing" textLength="65" x="232.5" y="179.9934">(Registry)</text></g><!--MD5=[6de611e34682f669701aef2da7d6fd87]
entity ds1--><g id="elem_ds1"><rect fill="#F1F1F1" height="62.9766" rx="2.5" ry="2.5" style="stroke:#181818;stroke-width:0.5;" width="195" x="432" y="129.97"/><rect fill="#F1F1F1" height="10" style="stroke:#181818;stroke-width:0.5;" width="15" x="607" y="134.97"/><rect fill="#F1F1F1" height="2" style="stroke:#181818;stroke-width:0.5;" width="4" x="605" y="136.97"/><rect fill="#F1F1F1" height="2" style="stroke:#181818;stroke-width:0.5;" width="4" x="605" y="140.97"/><text fill="#000000" font-family="sans-serif" font-size="14" lengthAdjust="spacing" textLength="155" x="447" y="163.5052">File Parsers Supervisor</text><text fill="#000000" font-family="sans-serif" font-size="14" lengthAdjust="spacing" textLength="145" x="447" y="179.9934">(Dynamic Supervisor)</text></g><!--MD5=[fee12181aa4e52cf3c8f65107a40bbbd]
entity fp1--><g id="elem_fp1"><rect fill="#F1F1F1" height="62.9766" rx="2.5" ry="2.5" style="stroke:#181818;stroke-width:0.5;" width="124" x="308.5" y="252.95"/><rect fill="#F1F1F1" height="10" style="stroke:#181818;stroke-width:0.5;" width="15" x="412.5" y="257.95"/><rect fill="#F1F1F1" height="2" style="stroke:#181818;stroke-width:0.5;" width="4" x="410.5" y="259.95"/><rect fill="#F1F1F1" height="2" style="stroke:#181818;stroke-width:0.5;" width="4" x="410.5" y="263.95"/><text fill="#000000" font-family="sans-serif" font-size="14" lengthAdjust="spacing" textLength="84" x="323.5" y="286.4852">File Parser 1</text><text fill="#000000" font-family="sans-serif" font-size="14" lengthAdjust="spacing" textLength="83" x="323.5" y="302.9734">(Supervisor)</text></g><!--MD5=[fd924ebebcc025b274fcc8de3577ab69]
entity fp2--><g id="elem_fp2"><rect fill="#F1F1F1" height="62.9766" rx="2.5" ry="2.5" style="stroke:#181818;stroke-width:0.5;" width="124" x="467.5" y="252.95"/><rect fill="#F1F1F1" height="10" style="stroke:#181818;stroke-width:0.5;" width="15" x="571.5" y="257.95"/><rect fill="#F1F1F1" height="2" style="stroke:#181818;stroke-width:0.5;" width="4" x="569.5" y="259.95"/><rect fill="#F1F1F1" height="2" style="stroke:#181818;stroke-width:0.5;" width="4" x="569.5" y="263.95"/><text fill="#000000" font-family="sans-serif" font-size="14" lengthAdjust="spacing" textLength="84" x="482.5" y="286.4852">File Parser 2</text><text fill="#000000" font-family="sans-serif" font-size="14" lengthAdjust="spacing" textLength="83" x="482.5" y="302.9734">(Supervisor)</text></g><!--MD5=[2ddbc0ea1c8998ea4e39ca488f7a7cac]
entity fp3--><g id="elem_fp3"><rect fill="#F1F1F1" height="62.9766" rx="2.5" ry="2.5" style="stroke:#181818;stroke-width:0.5;" width="127" x="626" y="252.95"/><rect fill="#F1F1F1" height="10" style="stroke:#181818;stroke-width:0.5;" width="15" x="733" y="257.95"/><rect fill="#F1F1F1" height="2" style="stroke:#181818;stroke-width:0.5;" width="4" x="731" y="259.95"/><rect fill="#F1F1F1" height="2" style="stroke:#181818;stroke-width:0.5;" width="4" x="731" y="263.95"/><text fill="#000000" font-family="sans-serif" font-size="14" lengthAdjust="spacing" textLength="87" x="641" y="286.4852">File Parser ...</text><text fill="#000000" font-family="sans-serif" font-size="14" lengthAdjust="spacing" textLength="83" x="641" y="302.9734">(Supervisor)</text></g><!--MD5=[c326229a2ffeb98b28a0dba81c32a3dd]
entity fr--><g id="elem_fr"><rect fill="#F1F1F1" height="62.9766" rx="2.5" ry="2.5" style="stroke:#181818;stroke-width:0.5;" width="120" x="151.5" y="375.93"/><rect fill="#F1F1F1" height="10" style="stroke:#181818;stroke-width:0.5;" width="15" x="251.5" y="380.93"/><rect fill="#F1F1F1" height="2" style="stroke:#181818;stroke-width:0.5;" width="4" x="249.5" y="382.93"/><rect fill="#F1F1F1" height="2" style="stroke:#181818;stroke-width:0.5;" width="4" x="249.5" y="386.93"/><text fill="#000000" font-family="sans-serif" font-size="14" lengthAdjust="spacing" textLength="76" x="166.5" y="409.4652">File Reader</text><text fill="#000000" font-family="sans-serif" font-size="14" lengthAdjust="spacing" textLength="80" x="166.5" y="425.9534">(GenServer)</text></g><!--MD5=[3f9efd09a644941ff8bea46f379d81b7]
entity nd--><g id="elem_nd"><rect fill="#F1F1F1" height="62.9766" rx="2.5" ry="2.5" style="stroke:#181818;stroke-width:0.5;" width="127" x="307" y="375.93"/><rect fill="#F1F1F1" height="10" style="stroke:#181818;stroke-width:0.5;" width="15" x="414" y="380.93"/><rect fill="#F1F1F1" height="2" style="stroke:#181818;stroke-width:0.5;" width="4" x="412" y="382.93"/><rect fill="#F1F1F1" height="2" style="stroke:#181818;stroke-width:0.5;" width="4" x="412" y="386.93"/><text fill="#000000" font-family="sans-serif" font-size="14" lengthAdjust="spacing" textLength="87" x="322" y="409.4652">Data Staging</text><text fill="#000000" font-family="sans-serif" font-size="14" lengthAdjust="spacing" textLength="51" x="322" y="425.9534">(Agent)</text></g><!--MD5=[2f0b3a19d94712a02025d561beb8fc0c]
entity dp--><g id="elem_dp"><rect fill="#F1F1F1" height="62.9766" rx="2.5" ry="2.5" style="stroke:#181818;stroke-width:0.5;" width="134" x="469.5" y="375.93"/><rect fill="#F1F1F1" height="10" style="stroke:#181818;stroke-width:0.5;" width="15" x="583.5" y="380.93"/><rect fill="#F1F1F1" height="2" style="stroke:#181818;stroke-width:0.5;" width="4" x="581.5" y="382.93"/><rect fill="#F1F1F1" height="2" style="stroke:#181818;stroke-width:0.5;" width="4" x="581.5" y="386.93"/><text fill="#000000" font-family="sans-serif" font-size="14" lengthAdjust="spacing" textLength="94" x="484.5" y="409.4652">Data Persister</text><text fill="#000000" font-family="sans-serif" font-size="14" lengthAdjust="spacing" textLength="80" x="484.5" y="425.9534">(GenServer)</text></g><!--MD5=[7468467f3b6b392f1d176d828c753b77]
entity db--><g id="elem_db"><path d="M495,508.9 C495,498.9 536.5,498.9 536.5,498.9 C536.5,498.9 578,498.9 578,508.9 L578,534.3883 C578,544.3883 536.5,544.3883 536.5,544.3883 C536.5,544.3883 495,544.3883 495,534.3883 L495,508.9 " fill="#F1F1F1" style="stroke:#181818;stroke-width:0.5;"/><path d="M495,508.9 C495,518.9 536.5,518.9 536.5,518.9 C536.5,518.9 578,518.9 578,508.9 " fill="none" style="stroke:#181818;stroke-width:0.5;"/><text fill="#000000" font-family="sans-serif" font-size="14" lengthAdjust="spacing" textLength="63" x="505" y="536.4352">Database</text></g><!--MD5=[bf92354aa8fb58d6339a3b647a5e5376]
link ts to reg--><g id="link_ts_reg"><path d="M307.5,70.32 C307.5,86.53 307.5,106.52 307.5,123.55 " fill="none" id="ts-to-reg" style="stroke:#181818;stroke-width:1.0;"/><polygon fill="#181818" points="307.5,128.16,311.5,119.16,307.5,123.16,303.5,119.16,307.5,128.16" style="stroke:#181818;stroke-width:1.0;"/></g><!--MD5=[1ae91a1d5af0354f5294edd2e4281b1d]
link ts to fsw--><g id="link_ts_fsw"><path d="M253.2,70.32 C222.91,87.53 185.13,108.99 154.03,126.65 " fill="none" id="ts-to-fsw" style="stroke:#181818;stroke-width:1.0;"/><polygon fill="#181818" points="150.02,128.93,159.8205,127.9551,154.3656,126.457,155.8637,121.0021,150.02,128.93" style="stroke:#181818;stroke-width:1.0;"/></g><!--MD5=[adf26498fbb2e62399aede0aa7510dc0]
link ts to ds1--><g id="link_ts_ds1"><path d="M364.09,70.32 C395.67,87.53 435.04,108.99 467.46,126.65 " fill="none" id="ts-to-ds1" style="stroke:#181818;stroke-width:1.0;"/><polygon fill="#181818" points="471.68,128.95,465.6943,121.1287,467.2905,126.5557,461.8635,128.1519,471.68,128.95" style="stroke:#181818;stroke-width:1.0;"/></g><!--MD5=[0b296f3c303ff1a9cc009d6eca6e82dc]
link ds1 to fp1--><g id="link_ds1_fp1"><path d="M488.97,193.3 C466.73,210.22 439.08,231.26 416.09,248.75 " fill="none" id="ds1-to-fp1" style="stroke:#181818;stroke-width:1.0;"/><polygon fill="#181818" points="412.16,251.74,421.7421,249.4632,416.1358,248.7081,416.891,243.1018,412.16,251.74" style="stroke:#181818;stroke-width:1.0;"/></g><!--MD5=[11ff02cbd9fbb380c6a59efa7811aebd]
link ds1 to fp2--><g id="link_ds1_fp2"><path d="M529.5,193.3 C529.5,209.51 529.5,229.5 529.5,246.53 " fill="none" id="ds1-to-fp2" style="stroke:#181818;stroke-width:1.0;"/><polygon fill="#181818" points="529.5,251.14,533.5,242.14,529.5,246.14,525.5,242.14,529.5,251.14" style="stroke:#181818;stroke-width:1.0;"/></g><!--MD5=[b91597d33dedf49d8e82db4d2101606f]
link ds1 to fp3--><g id="link_ds1_fp3"><path d="M570.29,193.3 C592.67,210.22 620.49,231.26 643.62,248.75 " fill="none" id="ds1-to-fp3" style="stroke:#181818;stroke-width:1.0;"/><polygon fill="#181818" points="647.58,251.74,642.8341,243.11,643.5989,248.7149,637.994,249.4798,647.58,251.74" style="stroke:#181818;stroke-width:1.0;"/></g><!--MD5=[d1694d361b741f8e0c9179f4b3e7666d]
link fp1 to fr--><g id="link_fp1_fr"><path d="M329.97,316.28 C307.73,333.2 280.08,354.23 257.09,371.72 " fill="none" id="fp1-to-fr" style="stroke:#181818;stroke-width:1.0;"/><polygon fill="#181818" points="253.16,374.71,262.746,372.4498,257.1411,371.6849,257.9059,366.08,253.16,374.71" style="stroke:#181818;stroke-width:1.0;"/></g><!--MD5=[467e0bc98642c562ff06f936547198d7]
link fp1 to nd--><g id="link_fp1_nd"><path d="M370.5,316.28 C370.5,332.49 370.5,352.47 370.5,369.5 " fill="none" id="fp1-to-nd" style="stroke:#181818;stroke-width:1.0;"/><polygon fill="#181818" points="370.5,374.12,374.5,365.12,370.5,369.12,366.5,365.12,370.5,374.12" style="stroke:#181818;stroke-width:1.0;"/></g><!--MD5=[329c2d4c8f09d374a36a8582a230c856]
link fp1 to dp--><g id="link_fp1_dp"><path d="M412.82,316.28 C436.13,333.27 465.14,354.41 489.2,371.94 " fill="none" id="fp1-to-dp" style="stroke:#181818;stroke-width:1.0;"/><polygon fill="#181818" points="493.04,374.74,488.1373,366.1981,489.0044,371.7881,483.4143,372.6552,493.04,374.74" style="stroke:#181818;stroke-width:1.0;"/></g><!--MD5=[404c4a36376304ac99f6c3d84e965001]
link fr to nd--><g id="link_fr_nd"><path d="M271.75,407.41 C281.34,407.41 290.94,407.41 300.54,407.41 " fill="none" id="fr-to-nd" style="stroke:#181818;stroke-width:1.0;"/><polygon fill="#181818" points="305.34,407.41,296.34,403.41,300.34,407.41,296.34,411.41,305.34,407.41" style="stroke:#181818;stroke-width:1.0;"/></g><!--MD5=[6af2b2f25cb557169085453999940bef]
link nd to dp--><g id="link_nd_dp"><path d="M440.88,407.41 C448.22,407.41 455.57,407.41 462.91,407.41 " fill="none" id="nd-dp" style="stroke:#181818;stroke-width:1.0;"/><polygon fill="#181818" points="467.57,407.41,458.57,403.41,462.57,407.41,458.57,411.41,467.57,407.41" style="stroke:#181818;stroke-width:1.0;"/><polygon fill="#181818" points="435.88,407.41,444.88,411.41,440.88,407.41,444.88,403.41,435.88,407.41" style="stroke:#181818;stroke-width:1.0;"/></g><!--MD5=[807b0644e00316551570db79c5399cd3]
link dp to db--><g id="link_dp_db"><path d="M536.5,439.38 C536.5,455.99 536.5,476.31 536.5,492.47 " fill="none" id="dp-to-db" style="stroke:#181818;stroke-width:1.0;"/><polygon fill="#181818" points="536.5,497.16,540.5,488.16,536.5,492.16,532.5,488.16,536.5,497.16" style="stroke:#181818;stroke-width:1.0;"/></g><!--MD5=[1c3a53025b1e57382496778d9237a3ba]
@startuml telemetry

component "Telemetry Supervisor\n(Supervisor)" as ts
component "File System Watcher\n(GenServer)" as fsw
component "Component Registry\n(Registry)" as reg
component "File Parsers Supervisor\n(Dynamic Supervisor)" as ds1

component "File Parser 1\n(Supervisor)" as fp1
component "File Parser 2\n(Supervisor)" as fp2
component "File Parser ...\n(Supervisor)" as fp3

component "File Reader\n(GenServer)" as fr
component "Data Staging\n(Agent)" as nd
component "Data Persister\n(GenServer)" as dp

database "Database" as db

ts -down-> reg
ts -down-> fsw
ts -down-> ds1

ds1 -down-> fp1
ds1 -down-> fp2
ds1 -down-> fp3

fp1 -down-> fr
fp1 -down-> nd
fp1 -down-> dp

fr -right-> nd
dp <-left-> nd
dp -down-> db

@enduml

PlantUML version 1.2022.7(Mon Aug 22 12:01:30 CDT 2022)
(GPL source distribution)
Java Runtime: OpenJDK Runtime Environment
JVM: OpenJDK 64-Bit Server VM
Default Encoding: UTF-8
Language: en
Country: US
--></g></svg>